HIERARCHY
ROOT Hips
{
    OFFSET   0.000000   0.000000   0.000000
    CHANNELS 6 Xposition Yposition Zposition Zrotation Xrotation Yrotation
    JOINT Chest
    {
        OFFSET   0.000000   8.007230   0.000000
        CHANNELS 3 Zrotation Xrotation Yrotation
        JOINT Chest2
        {
            OFFSET   0.000000  22.077100   0.000000
            CHANNELS 3 Zrotation Xrotation Yrotation
            JOINT Neck
            {
                OFFSET   0.000000  23.255100   0.000000
                CHANNELS 3 Zrotation Xrotation Yrotation
                JOINT Head
                {
                    OFFSET   0.000000  14.370100   1.956600
                    CHANNELS 3 Zrotation Xrotation Yrotation
                    End Site
                    {
                        OFFSET   0.000000  19.566000   0.000000
                    }
                }
            }
            JOINT LeftCollar
            {
                OFFSET   3.911900  19.017000  -0.467063
                CHANNELS 3 Zrotation Xrotation Yrotation
                JOINT LeftShoulder
                {
                    OFFSET  10.383700   0.000000   0.000000
                    CHANNELS 3 Zrotation Xrotation Yrotation
                    JOINT LeftElbow
                    {
                        OFFSET  26.662100   0.001193   0.000980
                        CHANNELS 3 Zrotation Xrotation Yrotation
                        JOINT LeftWrist
                        {
                            OFFSET  28.869000  -0.000059  -0.000082
                            CHANNELS 3 Zrotation Xrotation Yrotation
                            JOINT LeftFinger0
                            {
                                OFFSET   2.044650  -2.323450   3.252850
                                CHANNELS 3 Zrotation Xrotation Yrotation
                                JOINT LeftFinger01
                                {
                                    OFFSET   3.088130   0.000000   0.000000
                                    CHANNELS 3 Zrotation Xrotation Yrotation
                                    JOINT LeftFinger02
                                    {
                                        OFFSET   2.639460   0.000000   0.000000
                                        CHANNELS 3 Zrotation Xrotation Yrotation
                                        End Site
                                        {
                                            OFFSET   2.582190   0.000000   0.000000
                                        }
                                    }
                                }
                            }
                            JOINT LeftFinger1
                            {
                                OFFSET   8.364480   0.000000   3.252850
                                CHANNELS 3 Zrotation Xrotation Yrotation
                                JOINT LeftFinger11
                                {
                                    OFFSET   4.646930   0.000000   0.000000
                                    CHANNELS 3 Zrotation Xrotation Yrotation
                                    JOINT LeftFinger12
                                    {
                                        OFFSET   2.323470   0.000000   0.000000
                                        CHANNELS 3 Zrotation Xrotation Yrotation
                                        End Site
                                        {
                                            OFFSET   2.273050   0.000000   0.000000
                                        }
                                    }
                                }
                            }
                            JOINT LeftFinger2
                            {
                                OFFSET   8.364490   0.000016   1.078090
                                CHANNELS 3 Zrotation Xrotation Yrotation
                                JOINT LeftFinger21
                                {
                                    OFFSET   5.111610   0.000000   0.000000
                                    CHANNELS 3 Zrotation Xrotation Yrotation
                                    JOINT LeftFinger22
                                    {
                                        OFFSET   2.788150   0.000016   0.000000
                                        CHANNELS 3 Zrotation Xrotation Yrotation
                                        End Site
                                        {
                                            OFFSET   2.727660   0.000000   0.000000
                                        }
                                    }
                                }
                            }
                            JOINT LeftFinger3
                            {
                                OFFSET   7.899780   0.000015  -1.078090
                                CHANNELS 3 Zrotation Xrotation Yrotation
                                JOINT LeftFinger31
                                {
                                    OFFSET   4.646930   0.000000   0.000000
                                    CHANNELS 3 Zrotation Xrotation Yrotation
                                    JOINT LeftFinger32
                                    {
                                        OFFSET   2.323470   0.000000   0.000000
                                        CHANNELS 3 Zrotation Xrotation Yrotation
                                        End Site
                                        {
                                            OFFSET   2.273050   0.000000   0.000000
                                        }
                                    }
                                }
                            }
                            JOINT LeftFinger4
                            {
                                OFFSET   7.435090   0.000000  -3.252850
                                CHANNELS 3 Zrotation Xrotation Yrotation
                                JOINT LeftFinger41
                                {
                                    OFFSET   3.717550   0.000000   0.000000
                                    CHANNELS 3 Zrotation Xrotation Yrotation
                                    JOINT LeftFinger42
                                    {
                                        OFFSET   1.858770   0.000000   0.000000
                                        CHANNELS 3 Zrotation Xrotation Yrotation
                                        End Site
                                        {
                                            OFFSET   1.818440   0.000000   0.000000
                                        }
                                    }
                                }
                            }
                        }
                    }
                }
            }
            JOINT RightCollar
            {
                OFFSET  -3.911910  19.017000  -0.467062
                CHANNELS 3 Zrotation Xrotation Yrotation
                JOINT RightShoulder
                {
                    OFFSET -10.383700   0.000014   0.000000
                    CHANNELS 3 Zrotation Xrotation Yrotation
                    JOINT RightElbow
                    {
                        OFFSET -26.662100   0.001225   0.001091
                        CHANNELS 3 Zrotation Xrotation Yrotation
                        JOINT RightWrist
                        {
                            OFFSET -28.869000  -0.000020  -0.000085
                            CHANNELS 3 Zrotation Xrotation Yrotation
                            JOINT RightFinger0
                            {
                                OFFSET  -2.044650  -2.323490   3.252850
                                CHANNELS 3 Zrotation Xrotation Yrotation
                                JOINT RightFinger01
                                {
                                    OFFSET  -3.088130   0.000000   0.000000
                                    CHANNELS 3 Zrotation Xrotation Yrotation
                                    JOINT RightFinger02
                                    {
                                        OFFSET  -2.639460   0.000000   0.000000
                                        CHANNELS 3 Zrotation Xrotation Yrotation
                                        End Site
                                        {
                                            OFFSET  -2.582190   0.000000   0.000000
                                        }
                                    }
                                }
                            }
                            JOINT RightFinger1
                            {
                                OFFSET  -8.364480   0.000000   3.252850
                                CHANNELS 3 Zrotation Xrotation Yrotation
                                JOINT RightFinger11
                                {
                                    OFFSET  -4.646930   0.000000   0.000000
                                    CHANNELS 3 Zrotation Xrotation Yrotation
                                    JOINT RightFinger12
                                    {
                                        OFFSET  -2.323470   0.000000   0.000000
                                        CHANNELS 3 Zrotation Xrotation Yrotation
                                        End Site
                                        {
                                            OFFSET  -2.273050   0.000000   0.000000
                                        }
                                    }
                                }
                            }
                            JOINT RightFinger2
                            {
                                OFFSET  -8.364480   0.000000   1.078090
                                CHANNELS 3 Zrotation Xrotation Yrotation
                                JOINT RightFinger21
                                {
                                    OFFSET  -5.111620   0.000000   0.000000
                                    CHANNELS 3 Zrotation Xrotation Yrotation
                                    JOINT RightFinger22
                                    {
                                        OFFSET  -2.788160   0.000000   0.000000
                                        CHANNELS 3 Zrotation Xrotation Yrotation
                                        End Site
                                        {
                                            OFFSET  -2.727660   0.000000   0.000000
                                        }
                                    }
                                }
                            }
                            JOINT RightFinger3
                            {
                                OFFSET  -7.899780   0.000000  -1.078090
                                CHANNELS 3 Zrotation Xrotation Yrotation
                                JOINT RightFinger31
                                {
                                    OFFSET  -4.646930   0.000000   0.000000
                                    CHANNELS 3 Zrotation Xrotation Yrotation
                                    JOINT RightFinger32
                                    {
                                        OFFSET  -2.323470   0.000000   0.000000
                                        CHANNELS 3 Zrotation Xrotation Yrotation
                                        End Site
                                        {
                                            OFFSET  -2.273050   0.000000   0.000000
                                        }
                                    }
                                }
                            }
                            JOINT RightFinger4
                            {
                                OFFSET  -7.435090   0.000000  -3.252850
                                CHANNELS 3 Zrotation Xrotation Yrotation
                                JOINT RightFinger41
                                {
                                    OFFSET  -3.717550   0.000000   0.000000
                                    CHANNELS 3 Zrotation Xrotation Yrotation
                                    JOINT RightFinger42
                                    {
                                        OFFSET  -1.858760   0.000000   0.000000
                                        CHANNELS 3 Zrotation Xrotation Yrotation
                                        End Site
                                        {
                                            OFFSET  -1.818440   0.000000   0.000000
                                        }
                                    }
                                }
                            }
                        }
                    }
                }
            }
        }
    }
    JOINT LeftHip
    {
        OFFSET   9.783030   0.000000   0.000000
        CHANNELS 3 Zrotation Xrotation Yrotation
        JOINT LeftKnee
        {
            OFFSET   0.000063 -41.789100   0.000608
            CHANNELS 3 Zrotation Xrotation Yrotation
            JOINT LeftAnkle
            {
                OFFSET   0.000048 -41.133200  -0.000184
                CHANNELS 3 Zrotation Xrotation Yrotation
                JOINT LeftToe
                {
                    OFFSET   0.000000  -6.358960  14.674500
                    CHANNELS 3 Zrotation Xrotation Yrotation
                    End Site
                    {
                        OFFSET   0.000000   0.000000   3.913200
                    }
                }
            }
        }
    }
    JOINT RightHip
    {
        OFFSET  -9.783030   0.000000   0.000000
        CHANNELS 3 Zrotation Xrotation Yrotation
        JOINT RightKnee
        {
            OFFSET   0.000071 -41.789100   0.001239
            CHANNELS 3 Zrotation Xrotation Yrotation
            JOINT RightAnkle
            {
                OFFSET   0.000037 -41.133200  -0.000166
                CHANNELS 3 Zrotation Xrotation Yrotation
                JOINT RightToe
                {
                    OFFSET   0.000000  -6.358960  14.674500
                    CHANNELS 3 Zrotation Xrotation Yrotation
                    End Site
                    {
                        OFFSET   0.000000   0.000000   3.913200
                    }
                }
            }
        }
    }
}
MOTION
Frames: 6
Frame Time:   0.016667
  0.324229  89.537000   0.980289  -0.052099 -11.218700  -1.536280   1.010400   8.393720  -1.530460   2.287270  16.755500  -3.265530  -1.250550   7.193840   0.156605  -2.147380  14.566700  19.971400  -6.270590   0.725936   9.035730 -63.085500   2.812980 -40.961300  11.226500  -0.724428 -90.715200   9.607100  12.982600  -3.890460  43.802000  47.093600 -88.379300 -34.465000   0.005080   0.003440 -12.232500   0.001882   0.006004 -43.343900  -2.384700   2.524880 -35.506300   0.002744  -0.004063 -25.535200   0.003235  -0.003857 -59.794000  -3.001710   1.746650 -59.840000   0.005952  -0.003735 -44.880000   0.000395   0.001259 -36.305200  -5.328900   7.204410 -54.068400   0.001070   0.001119 -36.188400  -0.000181   0.000569 -44.139100  -7.756120   7.917880 -67.015000  -0.000130   0.000991 -44.632000   0.000249  -0.001294   0.542820  -2.405250   6.111450  62.475500  -5.311610  35.221900  -5.097630 -12.973400 101.026000  31.871400  -5.113790 -10.648500 -54.860500  31.735600  51.355800  -2.388010   0.001739   0.000137  -6.194020   0.004063   0.003648  31.451300  -3.838910  -6.243100  25.904400  -0.001425  -0.001809  18.133100  -0.001508  -0.005364  88.991300  -7.323520  -0.129346  89.302300   0.001774  -0.004608  66.976700   0.000602  -0.003428  88.989000  -7.323520  -0.130782 100.514000   0.001628  -0.004307  75.385100  -0.005139  -0.003355  88.984700 -10.000100  -0.176304 110.000000  -0.003544   0.003990  80.000000   0.002013   0.000111   1.996540  12.604500   0.563500   0.145422   0.982081  10.715500  -3.933840  -2.763270  -0.964003   0.000000   0.000000   0.000000  -1.747170  14.409900  -5.718310   1.154890   0.804451 -15.771400   0.701794  -3.326460  -1.089460  -0.000000   0.000000  -0.000000
  0.299631  89.537000   0.961669  -0.040378 -11.283700  -1.441040   0.958605   8.444160  -1.472970   2.175120  16.859100  -3.142370  -1.293840   7.208360   0.162346  -2.222030  14.594800  19.601400  -6.338520   0.650473   9.013350 -62.998100   3.145030 -41.081700  11.240000  -0.534943 -90.691400   9.630230  12.936900  -3.968130  43.981900  47.212600 -88.623300 -34.431800   0.005035   0.003352 -12.215900   0.001795   0.006143 -43.329800  -2.385390   2.526810 -35.494700   0.002744  -0.004113 -25.524300   0.003239  -0.003869 -59.815300  -3.003970   1.746450 -59.861200   0.005965  -0.003772 -44.895900   0.000491   0.001304 -36.283400  -5.327060   7.207890 -54.067100   0.001173   0.001114 -36.181500  -0.000187   0.000570 -44.147100  -7.762860   7.922760 -67.028200  -0.000108   0.000912 -44.640800   0.000266  -0.001243   0.577435  -2.346830   6.274360  62.334800  -4.723200  35.964600  -5.473340 -12.669200 100.142000  31.945400  -5.351320 -10.859200 -54.852100  31.657800  50.977900  -2.789050   0.001644   0.000130  -6.394520   0.004067   0.003653  31.278700  -3.841680  -6.289360  25.764600  -0.001528  -0.001680  18.035200  -0.001579  -0.005306  88.991000  -7.364970  -0.129697  88.955900   0.001689  -0.004557  66.716900   0.000574  -0.003335  88.988800  -7.364960  -0.130864 100.620000   0.001540  -0.004249  75.464800  -0.005068  -0.003306  88.984700 -10.000200  -0.176300 110.000000  -0.003556   0.003963  80.000000   0.002071   0.000226   2.015620  12.639100   0.566305   0.160581   0.985316  10.669400  -3.955030  -2.738400  -1.016800   0.000000   0.000000   0.000000  -1.726000  14.461500  -5.724490   1.158640   0.813108 -15.806500   0.682667  -3.324010  -1.142270   0.000000   0.000000   0.000000
  0.277161  89.537000   0.943157  -0.027970 -11.344700  -1.340180   0.912852   8.490590  -1.423160   2.076130  16.954300  -3.035480  -1.352750   7.219570   0.169980  -2.323430  14.614300  19.285800  -6.415010   0.579131   9.007190 -62.863500   3.501450 -41.213000  11.264200  -0.421819 -90.661300   9.599900  12.996100  -4.021510  44.191400  47.390200 -88.907900 -34.404000   0.005008   0.003469 -12.202000   0.001700   0.006278 -43.283500  -2.339960   2.481980 -35.455200   0.002743  -0.004137 -25.487200   0.003238  -0.003893 -59.754100  -2.947050   1.717330 -59.798400   0.005979  -0.003808 -44.848800   0.000591   0.001353 -36.135600  -5.314710   7.230300 -54.054600   0.001261   0.001113 -36.131500  -0.000201   0.000563 -44.095500  -7.714080   7.887730 -66.942200  -0.000045   0.000839 -44.583500   0.000261  -0.001212   0.590058  -2.271700   6.460110  62.238100  -4.084420  36.711500  -5.988320 -12.415000  99.240300  31.959400  -5.630840 -11.076000 -54.809700  31.567500  50.673200  -3.029950   0.001555   0.000157  -6.514970   0.004069   0.003653  30.956500  -3.845580  -6.377250  25.503500  -0.001627  -0.001564  17.852500  -0.001628  -0.005255  88.990500  -7.442300  -0.130118  89.003800   0.001612  -0.004498  66.752800   0.000545  -0.003241  88.988500  -7.442300  -0.130972 100.745000   0.001465  -0.004184  75.559200  -0.005008  -0.003258  88.984700 -10.000200  -0.176306 110.000000  -0.003561   0.003937  80.000000   0.002140   0.000323   2.038180  12.673200   0.566304   0.171014   0.981433  10.622100  -3.975010  -2.709290  -1.069790   0.000000   0.000000  -0.000000  -1.699500  14.510200  -5.742460   1.160360   0.823770 -15.831000   0.663390  -3.325210  -1.200870  -0.000000   0.000000   0.000000
  0.256862  89.537000   0.922596  -0.015208 -11.399500  -1.234810   0.870044   8.535240  -1.373040   1.982900  17.045700  -2.928240  -1.415130   7.224830   0.177960  -2.430680  14.624100  19.000000  -6.486870   0.502347   8.999240 -62.703600   3.861410 -41.347700  11.303700  -0.338783 -90.643200   9.549620  13.124500  -4.080860  44.364000  47.529200 -89.141900 -34.382000   0.004985   0.003585 -12.191000   0.001602   0.006416 -43.222500  -2.270950   2.414670 -35.403000   0.002742  -0.004159 -25.438400   0.003235  -0.003919 -59.639800  -2.860530   1.674710 -59.681700   0.005993  -0.003845 -44.761300   0.000691   0.001402 -35.928100  -5.297670   7.261910 -54.028500   0.001346   0.001111 -36.057000  -0.000210   0.000555 -43.995800  -7.639290   7.839490 -66.780000   0.000000   0.000768 -44.475500   0.000256  -0.001181   0.602560  -2.196540   6.648780  62.146300  -3.442790  37.474700  -6.552900 -12.179400  98.262900  32.005600  -5.910320 -11.271600 -54.717400  31.439500  50.368300  -3.204930   0.001470   0.000184  -6.602460   0.004072   0.003652  30.625000  -3.849630  -6.467950  25.235000  -0.001727  -0.001459  17.664500  -0.001681  -0.005203  88.990100  -7.521830  -0.130389  89.298900   0.001538  -0.004439  66.974100   0.000515  -0.003149  88.988200  -7.521830  -0.131091 100.921000   0.001386  -0.004121  75.691100  -0.004949  -0.003211  88.984700 -10.000300  -0.176313 110.000000  -0.003565   0.003908  79.999900   0.002207   0.000414   2.064010  12.702000   0.566292   0.177182   0.972891  10.565500  -3.993270  -2.678990  -1.122690  -0.000000   0.000000   0.000000  -1.671820  14.553500  -5.764810   1.161620   0.832890 -15.853400   0.643990  -3.326420  -1.262000   0.000000   0.000000  -0.000000
  0.236987  89.537000   0.897534  -0.003951 -11.444700  -1.126740   0.827678   8.580750  -1.315690   1.889350  17.138900  -2.806250  -1.472030   7.223690   0.185137  -2.528460  14.620500  18.731000  -6.540630   0.403060   8.972140 -62.532900   4.216110 -41.471000  11.375900  -0.265302 -90.634500   9.536740  13.303800  -4.180000  44.424100  47.561400 -89.222800 -34.361500   0.004960   0.003559 -12.180700   0.001506   0.006566 -43.156700  -2.222110   2.369490 -35.347600   0.002745  -0.004205 -25.386500   0.003232  -0.003936 -59.511700  -2.799040   1.648500 -59.552000   0.006007  -0.003889 -44.664000   0.000789   0.001447 -35.726700  -5.281370   7.292220 -53.989000   0.001432   0.001101 -35.982200  -0.000207   0.000561 -43.876100  -7.584080   7.821560 -66.592600   0.000000   0.000694 -44.350700   0.000282  -0.001126   0.637892  -2.143400   6.821880  62.056000  -2.825970  38.260500  -7.118840 -11.922100  97.158200  32.155500  -6.090110 -11.436100 -54.500100  31.188600  49.949700  -3.352080   0.001389   0.000175  -6.676040   0.004080   0.003652  30.445200  -3.852650  -6.517200  25.089500  -0.001830  -0.001368  17.562600  -0.001766  -0.005134  88.989700  -7.564570  -0.130579  90.121300   0.001462  -0.004389  67.590900   0.000482  -0.003066  88.987900  -7.564570  -0.131202 101.233000   0.001282  -0.004062  75.924800  -0.004885  -0.003168  88.984700 -10.000300  -0.176309 110.000000  -0.003572   0.003871  79.999900   0.002262   0.000503   2.094490  12.723000   0.583210   0.179265   0.960439  10.486000  -4.008380  -2.649520  -1.175250   0.000000   0.000000   0.000000  -1.643330  14.588000  -5.788390   1.164360   0.837824 -15.880200   0.624058  -3.321670  -1.320780  -0.000000   0.000000  -0.000000
  0.220854  89.537000   0.870115   0.008149 -11.484000  -1.016920   0.787912   8.625540  -1.255870   1.800550  17.230600  -2.679530  -1.526230   7.218640   0.191818  -2.621470  14.606400  18.481600  -6.590710   0.303364   8.937350 -62.367000   4.547510 -41.598800  11.460000  -0.182116 -90.641800   9.533790  13.486600  -4.293890  44.432700  47.566000 -89.234400 -34.351100   0.004930   0.003510 -12.175500   0.001410   0.006717 -43.087900  -2.196840   2.346800 -35.290600   0.002748  -0.004253 -25.333000   0.003230  -0.003950 -59.391100  -2.767150   1.636090 -59.430600   0.006021  -0.003935 -44.572900   0.000887   0.001490 -35.594200  -5.271900   7.314940 -53.944100   0.001522   0.001094 -35.917300  -0.000204   0.000566 -43.762600  -7.554860   7.816870 -66.419200   0.000000   0.000620 -44.235200   0.000324  -0.001062   0.677564  -2.091030   6.994150  61.922000  -2.232790  39.076000  -7.684390 -11.641400  95.988400  32.403700  -6.269110 -11.562300 -54.264500  30.916700  49.536000  -3.487240   0.001308   0.000159  -6.743620   0.004085   0.003652  30.317100  -3.855290  -6.552830  24.985800  -0.001934  -0.001289  17.490000  -0.001857  -0.005064  88.989400  -7.595660  -0.130784  90.934000   0.001387  -0.004343  68.200500   0.000444  -0.002985  88.987700  -7.595660  -0.131319 101.558000   0.001178  -0.004006  76.168800  -0.004820  -0.003125  88.984700 -10.000400  -0.176304 110.000000  -0.003584   0.003832  79.999900   0.002316   0.000588   2.122640  12.737400   0.611374   0.181342   0.948664  10.397400  -4.022490  -2.621110  -1.226190  -0.000000   0.000000  -0.000000  -1.618160  14.616900  -5.811510   1.168910   0.839414 -15.907700   0.604741  -3.313370  -1.380350  -0.000000   0.000000   0.000000
